<svg version="1.1" id="Layer_1" xmlns="http://www.w3.org/2000/svg" xmlns:xlink="http://www.w3.org/1999/xlink" x="0px" y="0px"
	 width="100%" viewBox="0 0 768 768" enable-background="new 0 0 768 768" xml:space="preserve">
<path fill="#ffffff" opacity="1.000000" stroke="none" 
	d="
M703.748108,484.316040 
	C679.446838,484.311371 655.618042,484.247070 631.789978,484.351929 
	C627.332520,484.371521 624.895203,482.895081 624.690308,478.180084 
	C624.496155,473.713226 625.511536,470.675140 630.825806,470.634644 
	C633.971680,470.610657 637.106506,469.905365 640.257812,469.646149 
	C644.301331,469.313477 646.279236,466.890747 646.527710,463.162384 
	C647.080261,454.872192 647.708008,446.567169 647.743530,438.265808 
	C647.878845,406.601868 647.866882,374.936676 647.736450,343.272644 
	C647.702271,334.964355 646.961853,326.661041 646.712463,318.350464 
	C646.620850,315.298584 645.242310,314.317261 642.367371,314.324585 
	C619.702393,314.382568 597.037170,314.397949 574.372253,314.333893 
	C571.360168,314.325378 570.493591,315.507385 570.219116,318.450531 
	C566.380066,359.621094 569.189087,400.872162 568.424011,442.074310 
	C568.280640,449.794312 571.150635,457.013641 570.482117,464.710358 
	C570.212585,467.813202 572.853638,469.221466 575.807861,469.542236 
	C579.607788,469.954803 583.401917,470.485291 587.213562,470.711548 
	C592.625977,471.032837 591.768188,474.987610 591.869446,478.391907 
	C591.981201,482.151520 590.527527,484.448029 586.333008,484.328827 
	C581.336731,484.186829 576.335815,484.158417 571.336975,484.166199 
	C552.172424,484.196106 533.007690,484.222015 513.843567,484.343262 
	C509.912628,484.368134 506.927643,483.724762 506.663788,478.906647 
	C506.307404,472.398926 506.811554,471.544098 512.793152,470.621857 
	C515.583557,470.191559 518.389771,469.668182 521.198914,469.599731 
	C525.726868,469.489380 527.413391,467.498505 527.896118,462.891083 
	C531.727661,426.323761 528.732788,389.660828 529.726318,353.060913 
	C530.038635,341.555176 529.259705,330.133148 527.838806,318.720642 
	C527.332153,314.651245 524.858521,313.447174 521.442749,313.102356 
	C518.130310,312.768005 514.790466,312.689362 511.484833,312.306854 
	C506.673370,311.750122 506.732513,308.149841 506.635071,304.491577 
	C506.539612,300.907104 508.122345,299.219330 511.602814,299.117584 
	C512.768616,299.083527 513.935059,299.051483 515.101257,299.051239 
	C577.596802,299.038635 640.092407,299.023956 702.587952,299.027893 
	C709.559265,299.028320 711.493591,301.667328 709.589966,308.360779 
	C708.940063,310.646210 707.723877,312.251984 705.121948,312.314270 
	C704.788879,312.322266 704.454651,312.333862 704.123657,312.368927 
	C687.414429,314.138000 687.792664,314.157043 686.948364,331.181000 
	C686.031555,349.667236 686.600098,368.141144 686.429016,386.618805 
	C686.268616,403.949524 686.558899,421.285095 686.322510,438.614075 
	C686.201721,447.472839 688.063354,456.114594 688.426941,464.906769 
	C688.561157,468.153442 691.074219,469.267365 693.945251,469.601807 
	C697.415405,470.006042 700.887817,470.617218 704.366333,470.669617 
	C709.289917,470.743744 710.011353,473.761902 710.019104,477.658569 
	C710.026978,481.626678 709.177002,484.726959 703.748108,484.316040 
z"/>
<path fill="#ffffff" opacity="1.000000" stroke="none" 
	d="
M151.715988,403.302338 
	C149.595383,401.425323 147.877441,399.594452 145.385422,398.784302 
	C143.568542,400.229126 144.310822,402.209656 144.310165,403.902435 
	C144.304199,419.220245 144.252670,434.540771 144.537033,449.854462 
	C144.631973,454.967773 145.556015,460.078766 146.299149,465.161835 
	C146.711334,467.981171 148.627533,469.397827 151.491852,469.633514 
	C155.470062,469.960968 159.438019,470.410889 163.413589,470.772919 
	C168.739029,471.257874 167.085480,475.346558 167.311310,478.391113 
	C167.544724,481.537628 166.779922,484.172180 162.926285,484.251678 
	C159.597168,484.320343 156.263306,484.223022 152.932724,484.146942 
	C131.941666,483.667480 110.953049,483.928040 89.964035,484.301941 
	C83.454773,484.417908 80.140022,478.811188 83.108215,472.841156 
	C83.885925,471.276947 85.239174,470.916443 86.807854,470.768677 
	C90.450851,470.425537 94.081978,469.948029 97.728050,469.648071 
	C101.692215,469.321930 103.360054,467.449982 103.754456,463.299652 
	C107.998505,418.638306 104.651100,373.886688 105.462677,329.188171 
	C105.536369,325.129761 103.460213,321.292053 103.336250,317.070312 
	C103.253090,314.238159 100.112366,313.427979 97.658951,313.047485 
	C94.546516,312.564728 91.361786,312.392792 88.206635,312.375519 
	C82.834000,312.346100 82.792915,308.760223 82.635063,304.844299 
	C82.473969,300.847626 83.942245,299.040009 88.074760,299.048584 
	C112.901619,299.100067 137.728699,299.044800 162.555710,299.014648 
	C165.385727,299.011230 167.552246,299.675629 167.316879,303.176056 
	C167.073639,306.793488 168.662384,311.383392 162.996765,312.258057 
	C159.719360,312.764069 156.353867,312.670898 153.040009,312.976959 
	C149.222595,313.329498 146.543594,314.732727 146.048218,319.223328 
	C143.669449,340.787598 144.381821,362.422058 144.307816,384.039856 
	C144.306244,384.502350 144.520050,384.965576 144.755676,385.927979 
	C150.627350,382.031555 155.182327,376.968170 159.939621,372.332092 
	C179.348007,353.418304 198.232849,333.981537 216.130188,313.605225 
	C218.690323,310.690460 220.364090,307.779205 219.946442,303.797394 
	C219.589172,300.391022 221.391083,299.010773 224.718658,299.025208 
	C238.214890,299.083771 251.712341,299.147461 265.207428,299.014893 
	C269.427216,298.973480 269.681732,301.684448 269.709045,304.601410 
	C269.736206,307.498444 270.391174,311.066986 265.780151,311.169128 
	C253.069427,311.450806 242.985519,317.329102 233.997696,325.741547 
	C228.414749,330.967072 222.602066,335.947449 217.029160,341.183319 
	C205.295166,352.207703 193.651062,363.327759 181.726746,374.639404 
	C187.381302,383.012054 194.098068,390.369629 200.541977,397.909241 
	C214.789444,414.579346 229.238129,431.078247 243.686081,447.575745 
	C248.268417,452.808167 253.120682,457.803680 257.826447,462.928711 
	C261.778534,467.232880 266.384888,470.366150 272.406158,470.627594 
	C275.674042,470.769470 276.839600,472.272156 276.490875,475.386963 
	C276.324768,476.870789 276.311218,478.388580 276.401001,479.880615 
	C276.594513,483.098511 275.111115,484.344635 271.949707,484.331512 
	C256.291229,484.266479 240.632294,484.289276 224.973557,484.311920 
	C222.982956,484.314789 221.420624,483.735718 220.386215,481.923645 
	C214.313873,471.286072 205.450867,462.878662 197.624649,453.654724 
	C188.162506,442.502777 178.392517,431.612549 168.819534,420.553864 
	C163.582397,414.503937 157.801193,409.006897 151.715988,403.302338 
z"/>
<path fill="#ffffff" opacity="1.000000" stroke="none" 
	d="
M469.326904,454.264343 
	C457.812897,469.842285 442.655426,479.196381 424.530518,484.495270 
	C406.009094,489.910004 386.993439,490.710815 368.390564,487.913086 
	C334.479248,482.813171 309.025635,465.379730 296.870605,431.827026 
	C291.066467,415.805237 290.565308,399.179871 291.349335,382.380188 
	C292.127045,365.716034 296.476105,350.150696 305.342224,336.025085 
	C314.539490,321.371887 327.810303,311.574493 343.503754,304.605072 
	C362.666473,296.094849 382.917572,294.091675 403.276550,295.942261 
	C427.087738,298.106689 449.815369,304.291473 467.128204,322.686737 
	C477.003265,333.179230 482.888062,345.667145 486.446869,359.528320 
	C490.751312,376.293762 490.320953,393.240875 487.792480,409.993622 
	C485.383514,425.954620 479.298828,440.843964 469.326904,454.264343 
M362.743195,465.759613 
	C371.150543,472.266815 381.663422,472.002380 391.294891,474.551147 
	C392.270752,474.809387 393.629456,474.291870 394.599365,473.753784 
	C396.300781,472.809875 398.088623,472.840271 399.911560,472.672058 
	C408.825470,471.849396 416.964325,469.031708 424.074066,463.400665 
	C439.694031,451.029388 445.596741,433.304138 447.179688,414.973816 
	C449.155731,392.092102 449.402985,368.768127 440.606842,346.693268 
	C436.050873,335.259705 429.488129,325.304626 418.826080,318.385254 
	C408.356964,311.591095 396.777374,310.321594 384.903015,311.291931 
	C371.022583,312.426178 359.046997,317.873352 350.094421,329.049042 
	C338.570557,343.434631 334.172882,360.580505 332.555725,378.240509 
	C330.857605,396.784027 332.404236,415.332764 339.412201,432.944916 
	C344.415161,445.518127 350.483429,457.434204 362.743195,465.759613 
z"/>
<path fill="#ffffff" opacity="1.000000" stroke="none" 
	d="
M425.304871,391.000061 
	C425.305878,400.163727 425.219360,408.828766 425.355469,417.490295 
	C425.401947,420.446747 424.539520,422.356689 421.461792,422.797028 
	C418.361145,423.240631 415.806885,422.547119 414.632141,419.251923 
	C413.779205,416.859253 413.721069,414.366608 413.635773,411.860596 
	C413.461548,406.741241 410.898529,403.756470 405.876831,403.137756 
	C396.264923,401.953491 386.587646,402.048309 376.948090,402.452820 
	C369.752777,402.754791 366.537628,407.029785 366.266815,415.407990 
	C366.090271,420.869629 363.846436,423.343750 359.358917,422.940491 
	C356.537964,422.686981 354.673676,421.462646 354.677643,418.264435 
	C354.701599,398.937958 354.718811,379.611420 354.661835,360.285126 
	C354.653076,357.320068 356.189423,356.446411 358.735840,356.703094 
	C361.474365,356.979095 365.112518,355.330414 366.087250,359.745300 
	C366.370209,361.026794 366.214569,362.400848 366.308655,363.729034 
	C366.818207,370.921478 370.669647,374.596985 377.826691,374.636810 
	C385.490479,374.679474 393.154846,374.690521 400.818573,374.647980 
	C409.581177,374.599304 413.142090,371.206055 413.671326,362.527222 
	C413.984161,357.396912 419.676178,354.417114 424.179535,357.023071 
	C425.816650,357.970459 425.460815,359.548859 425.453735,361.014038 
	C425.406158,370.842712 425.354736,380.671356 425.304871,391.000061 
z"/>
</svg>