<svg fill="white" width="256" height="256" role="img" viewBox="0 0 24 24" xmlns="http://www.w3.org/2000/svg"><title>React</title><path d="M1.866 12.002c0-1.347.685-2.564 1.842-3.269l7.035-4.062a3.803 3.803 0 0 1 3.795 0l7.035 4.062A3.784 3.784 0 0 1 22.13 12c0 1.347-.685 2.564-1.842 3.268l-7.035 4.063a3.803 3.803 0 0 1-3.794 0l-7.035-4.062A3.784 3.784 0 0 1 1.866 12.002zm16.968-1.764a2.037 2.037 0 1 0-2.032-2.035 2.037 2.037 0 0 0 2.032 2.035zM12 8.066a3.935 3.935 0 1 0 0 7.868 3.935 3.935 0 0 0 0-7.868zm-5.668 1.765a2.037 2.037 0 1 0 2.032 2.035 2.037 2.037 0 0 0-2.032-2.035z"/></svg>
